<svg xmlns="http://www.w3.org/2000/svg" viewBox="0 0 95 68.38"><defs><style>.cls-1{fill:#fff;}</style></defs><g id="Layer_2" data-name="Layer 2"><g id="ARTBOARD2"><path class="cls-1" d="M83.67,21.71c-.46-6.59-2.45-12.84-9.22-15.46A23,23,0,0,0,53.23,8.88C52.19,2.66,42.33-.59,37,.09,30.4.91,20.18,6.58,19.28,13.94,13,12.18,4.41,9.35,1.16,17-.69,21.39-.5,31.34,3,35.72-3.7,40.78,4,56.25,9.72,59.1a8.25,8.25,0,0,0,6.38.56c2.66-.91,3.61-2.37,7.12-.25,1.43.86,2.45,2.28,4,3C33,65.24,40.55,63.62,44,58.28c3.43,2,6.33,5,10.51,5.24a16.11,16.11,0,0,0,6.68-1.22c2.67-1,4.67-3.34,7.23-4.39,1.52-.63.49-.67,1.8-.1.9.39,1.82,1.62,2.64,2.25a49.8,49.8,0,0,0,5.89,3.87c3.61,2,7.52,3.91,11.67,4.44a1,1,0,0,0,1-1.25,102.17,102.17,0,0,0-4.17-9.4Q85.78,55,84.25,52.37C82.89,50,82.91,49.69,85,47.8c3.61-3.32,7.59-5.31,9.3-10.27C96.86,30,92.45,19,83.67,21.71ZM91.29,39.1c-2.48,4.18-7.17,6.52-10.87,9.48a1.1,1.1,0,0,0-.18,1.33A127.59,127.59,0,0,1,88.8,66.09c-6.67-1.5-14.26-6.16-18.34-11.23a1.09,1.09,0,0,0-1.31-.17c-4.28,3-8.87,6.88-14.44,6.38-4.21-.38-7-3.64-10.6-5.48a1.24,1.24,0,0,0-1.66.43c-2.17,4.36-6.15,5.55-10.73,5-3.79-.43-5.42-2.75-8.37-4.72-4.58-3.07-5.38,1.36-9.88,1.3-4.65-.06-7.69-5.49-9-9.27-1-3-2.76-9.56,1-11.35,1.36-.66.17-2.65-1.18-2h0c-3-3.84-3-13.58-1.44-17.2,3.06-7,11.6-3.28,17.07-1.82A.91.91,0,0,0,21,15.1C20.94,8.48,30.41,3.45,36,2.2c5-1.13,16.19,1.88,15.45,8.53-.1.89,1.06,1.13,1.61.66A21.07,21.07,0,0,1,72.58,7.61c7.23,2.17,9,8.66,9.24,15.45a1,1,0,0,0,1.44.83C92.64,19.72,94.67,33.41,91.29,39.1Z"/></g></g></svg>