<svg xmlns="http://www.w3.org/2000/svg" viewBox="0 0 73.94 122.81"><defs><style>.cls-1{fill:#fff;}</style></defs><g id="Layer_2" data-name="Layer 2"><g id="ARTBOARD2"><path class="cls-1" d="M39.31.07C19-1.21,3.52,15.4.51,34.6A41.48,41.48,0,0,0,6.45,63.13c3.68,6.09,8.48,11.47,12,17.65,1.88,3.31,2.74,7.31,4.39,10.75a11.64,11.64,0,0,0-4.61,3.53,1.79,1.79,0,0,0,.36,2.76,12.21,12.21,0,0,0,1.2.6,13.67,13.67,0,0,0,.77,3.64c.82,3,0,5.6.36,8.6.48,3.72,2.5,5.67,5.78,7.17.47.22,3.57,1,4.15,1.3,1.2.6,1,.7,1.8,1.46,1.06,1,1,1.75,2.68,2.12,3.22.7,4.82-2.6,6.75-3.53.27-.13,2.14-.1,2.71-.28a9.09,9.09,0,0,0,3.94-2.3c2-2.17,2.28-5.8,2.69-8.58.35-2.36,2-12.08-1.3-14a4.17,4.17,0,0,0-.26-.38,4.09,4.09,0,0,0-2.94-1.72c2.66-12.7,11.64-21.58,18.13-32.57a63.67,63.67,0,0,0,8.75-26C75.67,13.18,58.1,1.25,39.31.07Zm-12.7,94.3c4.49-.81,9.7.71,14.5,1.22-6.18.94-13.46,2-18.42.31a10.3,10.3,0,0,1,2.49-1.18A1.48,1.48,0,0,0,26.61,94.37ZM37.67,45.56a4.7,4.7,0,0,0,1.88,1.94c2.25,1.13,4.81.29,6.84-1.41a5.75,5.75,0,0,0,2.46.87c-.77,3.22-1.17,6.39-1.5,7.74-3,12.42-8.48,23.87-9.48,36.71-1.68-.23-3.36-.49-5-.69,5-9.2,2.4-34.22-3.1-47.67a13.34,13.34,0,0,0,1.06-1.3C32.3,44.45,34.72,46.26,37.67,45.56Zm1.18-6.7c1.49-2.56,5.29,1,0,0Zm9.32,66.07a1.36,1.36,0,0,0-.37.1,33,33,0,0,1-13,3.26c-3.79.19-6.84-1-10.31-1.82,0-.63-.06-1.29-.13-2,0-.31-.08-.61-.14-.92,2.55,1.21,6,1.35,8.35,1.52,4.78.35,11.56.27,15.82-2.41C48.36,103.45,48.27,104.21,48.17,104.93Zm-23.6,3.54c2.55,1.92,6.72,2.15,9.58,2.14a33.76,33.76,0,0,0,13.6-3c-.06.34-.11.65-.16.92a19.31,19.31,0,0,1-.57,2.65c-3.58,1.06-6.54,2.33-10.57,2.24a30.53,30.53,0,0,1-11.67-2.88A13.57,13.57,0,0,1,24.57,108.47ZM48,97.74a7.92,7.92,0,0,1,.47,2.47,1.39,1.39,0,0,0-1.21,0c-6,2.74-17.66,5.19-23.68.92-.2-.57-.42-1.14-.65-1.71C30.68,101.14,40.87,98.16,48,97.74Zm-8.66,18.62c-.38.7-1.25,2.22-2.19,2.38-2.27.36-.84-.49-1.82-1.23-1.8-1.36-3-1.49-5.23-2.15-2.47-.71-3.82-1.65-4.57-2.83a25.4,25.4,0,0,0,14.16,3.4A1.47,1.47,0,0,0,39.32,116.36ZM65.74,49.12C59.59,64.42,46.07,75.34,43,91.86c-.53,0-1.06,0-1.6-.07.55-12.14,5.29-23.14,8-34.88.61-2.58,1.83-5.82,1.9-8.5A5.6,5.6,0,0,0,52,46.72c3.41-.9,6.35-3.78,4.67-7.87A1.32,1.32,0,0,0,55.5,38c-2.47-.25-4.13,1.86-5.29,4.67-.15-.12-.27-.23-.43-.35l-.25-.58c.86-2.26.75-4.64-1.07-6.21a1.12,1.12,0,0,0-1.74.22c-1.81,3.09-2.39,5.46-2.19,7.23a13.74,13.74,0,0,1-3.13.25c2.26-3.29,3.24-11-1.78-9.52-1.87.54-2.88,2.39-3.21,4.58l-.6-.17a10.68,10.68,0,0,0-2.65-1.7,6.88,6.88,0,0,0-1.11-5.64A1.25,1.25,0,0,0,30.1,31a11.14,11.14,0,0,0-.62,7.19,7.81,7.81,0,0,0-.29,1.24l-.74.79C26,35.46,23.18,33,20.26,34.79,15.59,37.63,19,45.91,23.92,46a6.46,6.46,0,0,0,3.2-.86c1.71,3.66,1.77,8.57,2.8,12.48a55.71,55.71,0,0,1,1.87,18c-.24,4.3.49,11-1.95,14.82a19.37,19.37,0,0,0-4,.19c-.8-2.45-1.05-5.18-2-7.53-1.66-4.15-4.51-7.93-7-11.59-6.3-9.17-12.65-17.71-13-29.33C3.2,19.62,22.15-.28,45.18,4.89c9.21,2.07,21.18,7.56,24,17.42C71.67,31,69,40.94,65.74,49.12ZM26.23,42.56l-.27.28q-9.21-6-2.38-1.8A4.41,4.41,0,0,1,26.23,42.56Z"/></g></g></svg>