<svg xmlns="http://www.w3.org/2000/svg" viewBox="0 0 103.12 75.64"><defs><style>.cls-1{fill:#fff;}.cls-2{fill:none;stroke:#fff;stroke-miterlimit:10;fill-rule:evenodd;}</style></defs><g id="Layer_2" data-name="Layer 2"><g id="ARTBOARD2"><path class="cls-1" d="M102.6,68.77c1.32-6.48-.21-13.74-.94-20.21-1-9.27-.53-18.65-1.27-27.95-.45-5.65-.06-14.73-6.06-17.74C90.45.94,84.82,1.17,79.62,1.61c-8.94-.1-17.88.19-26.82.46C45.52,1.9,38.24,1.61,31,1.29,21.62.88,10.47-1.66,1.5,1.76A1.23,1.23,0,0,0,.73,3.18,1.33,1.33,0,0,0,0,4.65,164.75,164.75,0,0,1,1.83,41.77C1.17,52.58-1.3,63.28,1.36,74a1.3,1.3,0,0,0,1.23.93c24.8,1.21,49.4.71,74.16-.5C83.92,74.09,100.61,78.64,102.6,68.77ZM4.25,71.89C1.68,70,2.54,62.68,2.72,59.5c.76-14.08,2.46-27.63,1.41-41.8-.22-2.85-1.52-6.69-1-9.45.48-2.57-2-1.67,2-3.2,1.56-.58,4.78-.33,6.43-.38,7.39-.24,14.79.12,22.19,0,2.89,0,5.78-.13,8.67-.24,13.75.62,27.48,1,41.25.49,6-.23,11-.56,12.67,6.46,2,8.42,1.66,17.87,1.81,26.48.15,8.93,2.24,17.77,2.1,26.7,0,1.65.24,4.66-.91,6-1.55,1.76-5.43,1.47-7.51,1.52-4.21.1-8.41-.27-12.62-.23-13.82.12-27.63,1.4-41.5,1.37-7.38,0-14.76-.09-22.14-.29C12.51,72.81,6.69,73.65,4.25,71.89Z"/><path class="cls-1" d="M11.15,42.74s0,0,0,0l.15-.06a1.86,1.86,0,0,0,1.2-.48,3.49,3.49,0,0,1,.9-.26,1.21,1.21,0,0,0,1.1-.78,2.94,2.94,0,0,0,.82-2.69,2.79,2.79,0,0,0-2.08-2.14,3.43,3.43,0,0,0-3.53,1.51l0,.06L9,38a1.32,1.32,0,0,0-.78,1.91c.15.24.3.5.47.76a1.46,1.46,0,0,0,.67.89l.15.16a1.25,1.25,0,0,0,0,.58.93.93,0,0,0,.67.66,1.14,1.14,0,0,0,.93-.17Z"/><path class="cls-1" d="M92.53,64.55c4-5.31,1.25-14.21.71-20.17-.85-9.54-1.24-18.94-1.46-28.49-.12-5.51-1.28-8-7-8.21C73,7.34,61.18,8.13,49.4,7.58c-9.8-.45-20.14-3.21-29.68.17a1.39,1.39,0,0,0-1,1.69c.5,1.34.9,2.68,1.28,4-.55,10.35,0,20.75.4,31.1.23,5.6-1.17,15.2,3,19.87,3.49,3.88,10.81,3,15.41,3.18,11,.45,22.13.25,33.17.85C78.16,68.79,88.19,70.26,92.53,64.55ZM22.1,27.07c0,1,.08,1.95.1,2.93C22.16,29,22.13,28.05,22.1,27.07ZM65,65.81c-10.63-.06-21.27-.19-31.89-.77-4.31-.24-8-.47-9.36-5.16a26.23,26.23,0,0,1-.84-5c.85-15.08,3.63-30.2-1.11-44.88,8.52-2.34,17.64-.11,26.29.42,10.61.65,21.82,1.16,32.43.37,1.57-.12,3.48-.58,5-.25,4,.88,3.31,3,3.37,6.12.07,3.6-.1,7.16.11,10.76.57,9.76,2.82,19.69,2.86,29.44C92,70.05,73.82,65.87,65,65.81Z"/><path class="cls-2" d="M61.39,18.87a5.19,5.19,0,0,0-2.54-.11h-.22a9.74,9.74,0,0,0-5.39,2.09,7.84,7.84,0,0,0-1.54,8.91,8.41,8.41,0,0,0,3.52,3.3c1.42.64,3.25.48,5.29.55,2.92-1,5.1-2.89,5.39-6.38A8.9,8.9,0,0,0,61.39,18.87Z"/><path class="cls-2" d="M48.07,54.41c7.4,1,17.3.14,24.32.11.78-3-.06-6.58-.22-10s0-7.13-1.32-9.69c-1.53-1.22-4.19-1.77-6.38-2a.87.87,0,0,0-.33.22c-1.38.42-2,1.63-3.41,2-3.26.53-5.49-.89-7.49-2-2.24,1.09-5,1.67-6.49,3.53-.93,3.68-.48,8,0,11.77C47,50.6,47.08,52.86,48.07,54.41Z"/><path class="cls-2" d="M44.77,39.12c.23-1.75,0-4,.33-5.62C43.44,34,43.52,38.24,44.77,39.12Z"/><path class="cls-2" d="M41.91,36.81c.14,1.27.56,2.62,1.65,2.86,0-1.78-1-3.59-.88-5.84a.49.49,0,0,1-.33-.11c-.22.12-.25.41-.44.55C42,35.13,41.82,36,41.91,36.81Z"/><path class="cls-2" d="M73.6,39.12c1.54,0,1.85-2.18,1.87-4.08-.14,0-.15-.14-.33-.1C74.67,36.37,74.17,37.78,73.6,39.12Z"/><path class="cls-2" d="M77.12,35.6c-1.16.77-1.35,2.54-2.09,3.74.19,0,.25.19.22.44C76.72,39.23,77,37.46,77.12,35.6Z"/><path class="cls-2" d="M57.51,20.3a6.9,6.9,0,0,1,2.64,0,11.84,11.84,0,0,1,2.53,2.75c1.61,4.13-.15,8.78-4.07,9-1.07.07-1.83-.46-3.08-.44C51.06,29.59,50.94,20.16,57.51,20.3Zm-3.85,4.29a7.42,7.42,0,0,0,2-2.53C54.31,21.8,53.66,23.15,53.66,24.59Z"/><path class="cls-2" d="M63.67,33.94c1.8.7,4.06.93,5.72,1.76.53,5.64.4,11.93,1.21,17.28-7.3-.1-14.8.53-22.34.55-.51-5.13-1-10.24-1.21-15.73a14,14,0,0,1,5-3.2C54.41,37.5,61.87,37.26,63.67,33.94Zm5.06,9.91c.32-.17-.23-.51.11-.66,0-2.35.29-4.95-.77-6.38h-.33C67.84,39.38,67.54,42.37,68.73,43.85Z"/></g></g></svg>