<svg xmlns="http://www.w3.org/2000/svg" viewBox="0 0 180.23 106.27"><defs><style>.cls-1{fill:#fff;}</style></defs><g id="Layer_2" data-name="Layer 2"><g id="ARTBOARD2"><path class="cls-1" d="M46,94.78A1.28,1.28,0,0,0,46.9,96c8.16,2.36,16.81,0,25-1.17,13.49-2,26.67-1.49,40.26-.9,6.14.26,12.28.48,18.42.6,3.57.08,8.17,1.33,11.63.67,5.64-1.06,4.74-4.77,3.61-9.14a1.58,1.58,0,0,0-.28-1.67C140,77.83,139.16,68.45,134.09,62c.21-7.62-.47-15.21-.45-22.84,0-5.8,1.49-11,2.18-16.72.74-6.06.13-10.47-6.11-12.23C118.24,7,104,7.6,92.27,8.44c-3,.21-6,.45-8.92.7-3.95-.32-8.15-1.51-12.07-1-1.73.24-3.09,1.09-4.74,1.44-2.85.61-5.91-.34-8.38.21-2.12.47-3.24-.42-4.75,1.64-2.46,3.38.6,12.3.79,15.67.7,12.18,0,24.4.56,36.59-4.23,6.65-6.35,15.71-8,23.2C45.5,89.39,45.82,91.77,46,94.78Zm2.31-4.65c.53.1,1.05.19,1.57.25a16.66,16.66,0,0,0,.21,3A3.59,3.59,0,0,1,48.3,90.13Zm4.45.4c0,.55.12,1.11.21,1.67a14.77,14.77,0,0,0,.44,2.2,10.85,10.85,0,0,1-1.46-.24,35.74,35.74,0,0,0-.25-3.64Zm2.42,4A11.85,11.85,0,0,0,54.72,92c-.11-.51-.23-1-.35-1.54.59,0,1.18-.08,1.76-.15,0,1.06,0,2.11.11,3.16,0,.34.06.68.1,1C55.94,94.51,55.55,94.51,55.17,94.5Zm11.28-5.86a6.28,6.28,0,0,1,.22,2.28A9.84,9.84,0,0,0,66.76,93L64,93.54c-.15-.79-.48-1.58-.66-2.34a19.41,19.41,0,0,0-.5-2C64.06,89,65.26,88.82,66.45,88.64ZM62,91.76a9,9,0,0,0,.4,2.06c-.59.1-1.2.19-1.81.27-.09-.52-.23-1-.34-1.53-.2-.92-.42-1.83-.67-2.73l2.25-.4A14,14,0,0,0,62,91.76Zm-3.12-1.82c.11,1.37,0,2.94.23,4.34L58,94.39c-.09-.57-.2-1.13-.26-1.65-.1-.87-.24-1.72-.42-2.57C57.87,90.1,58.38,90,58.89,89.94Zm9.62,2.73c-.05-.34-.13-.69-.17-1a16.63,16.63,0,0,0-.31-2,3.35,3.35,0,0,0-.53-1.17c.82-.1,1.64-.19,2.46-.25l.29,0a33.64,33.64,0,0,1,.17,4.14l-.77.11Zm19.94-5.48a11.45,11.45,0,0,1,.32,1.63,3.79,3.79,0,0,0,.35,1.67s0,0,.08.07c-.64,0-1.29,0-1.93,0a3,3,0,0,0-.11-.61c-.18-.51-.36-1-.56-1.54s-.3-.79-.49-1.18Zm-3.72.16a17.25,17.25,0,0,0,.47,2.23,9.21,9.21,0,0,0,.35,1.14c-.73,0-1.45.08-2.18.14a7.35,7.35,0,0,0-.63-1.77c-.21-.55-.42-1.08-.66-1.61Zm-4,.21c.17.81.32,1.63.53,2.43a5.72,5.72,0,0,0,.35,1c-1,.08-1.94.21-2.91.31a8.37,8.37,0,0,0-.53-2.63,6.7,6.7,0,0,0-.34-.92ZM77,87.79a13.44,13.44,0,0,1,.13,1.86,7.18,7.18,0,0,0,.15,1.79l-2.3.27a6.77,6.77,0,0,0-.48-2.46A10.77,10.77,0,0,0,74.05,88Zm-4.4.28A15.54,15.54,0,0,0,72.76,90a4.4,4.4,0,0,0,.57,1.93l-1.18.17a8.45,8.45,0,0,0-.84-4Zm17.62,2.48a.69.69,0,0,0,.16-.22c.33-1-.2-2.2-.71-3.18L92,87.08c.1.76.21,1.52.3,2.29,0,.38.07.77.14,1.15C91.7,90.52,91,90.54,90.21,90.55Zm19.27-3.17c0,.47,0,.94.11,1.41a4.92,4.92,0,0,0,.55,2.14c0,.07.11.09.16.13l-2.45-.1a12.1,12.1,0,0,0-.93-2.22,8.42,8.42,0,0,0-.81-1.51C107.24,87.28,108.36,87.32,109.48,87.38Zm-4.61-.2A34.56,34.56,0,0,0,106,90.89l-3.29-.14a10.32,10.32,0,0,0-.5-1.7c-.22-.66-.45-1.33-.68-2l1,0C103.3,87.1,104.08,87.15,104.87,87.18ZM100.41,87a17.42,17.42,0,0,0,.66,3.65l-2.82-.07c-.14-.52-.34-1-.52-1.54-.24-.69-.48-1.38-.74-2.06C98.13,87,99.27,87,100.41,87Zm-4.07,0a27,27,0,0,0,.57,3.57c-.86,0-1.73-.06-2.59-.07a8.29,8.29,0,0,0-.43-1.75,13,13,0,0,0-.69-1.71C94.25,87,95.29,87,96.34,87Zm14.84,4.08a.66.66,0,0,0,.29-.53,7.5,7.5,0,0,0-.53-2.12c-.09-.33-.16-.67-.24-1l2,.13a33.23,33.23,0,0,1,.66,3.33.68.68,0,0,0,.16.29Zm24.41-2.25A15.61,15.61,0,0,0,136,92c-.51,0-1,0-1.53,0-.21-.62-.53-1.25-.68-1.82s-.25-1-.39-1.43C134.1,88.82,134.85,88.84,135.59,88.85ZM132,92l-1.2,0a11.83,11.83,0,0,1-.76-1.61c-.16-.58-.28-1.17-.41-1.75l2,.11A11.36,11.36,0,0,0,132,92Zm-3.74-3.48a12.18,12.18,0,0,0,.6,3.34l-2-.11a5.84,5.84,0,0,0-.4-2.61c-.09-.26-.21-.49-.32-.74C126.87,88.43,127.57,88.48,128.27,88.51Zm-3.33-.18c.06.39.11.79.18,1.18a15.66,15.66,0,0,0,.34,2.16l-1.57-.07a.82.82,0,0,0,.38-.42c.33-.83-.18-1.83-.5-2.61l-.12-.32Zm-2.88-.17c0,.34.11.68.17,1a3.47,3.47,0,0,0,1.08,2.4h0l-4-.14a3.77,3.77,0,0,0-.52-2.18c-.21-.45-.42-.9-.64-1.35Zm-4.92-.31c.17.57.35,1.13.51,1.71a5.68,5.68,0,0,0,.69,1.84l-3.65-.15a.61.61,0,0,0,.23-.55,8,8,0,0,0-.9-3Zm21,4.28a16.31,16.31,0,0,1-.58-1.57c-.17-.58-.37-1.15-.56-1.73.63,0,1.26-.06,1.88-.12.06.36.15.73.2,1a6.91,6.91,0,0,0,.81,2.67C139.27,92.35,138.68,92.22,138.1,92.13Zm3.42.26a1.08,1.08,0,0,0,.08-.63,22.7,22.7,0,0,0-.65-2.38c-.09-.3-.18-.62-.29-.93a14.1,14.1,0,0,0,2.91-.83c0,.12.07.24.11.35a8.58,8.58,0,0,0,.09,2.2A3.23,3.23,0,0,1,141.52,92.39ZM61,62c-2.06-5.63-.31-12,.26-17.72.52-5.26-.07-10.5.08-15.78.09-3.12-.35-7.68,3.33-9.32,1.69-.75,7.94.64,9.79.74,6.87.36,13.67-.47,20.54-.75,6.41-.27,12.82-.82,19.23-1,7.41-.24,13.73-1.53,14.79,7.69.62,5.4-.43,11.08-.67,16.48-.3,6.64.28,13.25.16,19.88-6.4,2.45-21.43,1.58-25.64,1.61-8.36,0-16.82.26-25.17-.22C72.12,63.22,66.57,61.77,61,62ZM130.7,44.74l0,.94c.11,3,2,11.76.46,14.56a2.93,2.93,0,0,1-.5.64C130.43,55.55,130.56,50.15,130.7,44.74Zm.24-28.87c4.06,4.66.68,11.35-.11,17.11a88.76,88.76,0,0,0-1.32-15.14.79.79,0,0,0-.56-.57c-10.12-2.44-20.66-.52-30.93-.38-12.23.18-24.38,0-36.59.08a1.09,1.09,0,0,0-1,.79c-1.73,8.47-.45,16.84-1.11,25.34-.49,6.39-2.41,12.88-.15,19-.47,0-.93.12-1.4.2v0l0-.06a.85.85,0,0,0,0-.79c-.25-8.07-.12-16.14-.18-24.22,0-5.36-3.12-18.31.43-22.11a4.37,4.37,0,0,1,2.71-1.72,31.94,31.94,0,0,0,3.64.42c4.1.18,8.19-.53,12.27-.84,8.93-.68,18-1.67,27-1.44C110.69,11.68,126.2,10.44,130.94,15.87ZM52.47,78.56c1.34-4.35,2.26-8.75,3.84-13a2.2,2.2,0,0,0,.36,0c5.69-1.52,11.07,0,16.74.61a169.24,169.24,0,0,0,19,.46c13.36-.09,26.52-1.07,39.86-1.74,1.87,3.07,2.71,7.25,4.16,10.39a50.94,50.94,0,0,0,5.69,9.59c-5.8,2.24-14.88.38-20.65,0-12.16-.69-24.08-1.43-36.25-.57-9.68.69-19,1.3-28.57,2.6-1.49.2-5.5,1.36-6.5-.68C49.68,85.38,52.19,79.49,52.47,78.56Z"/><path class="cls-1" d="M43.3.32c-4.08-.82-8.65.14-12.73.6-5.83.66-11.73.33-17.59.8C9.42,2,3.7,1.76,1.81,5.54.59,8,.74,11.52,1,14.8c-.06,5.63.12,11.25.29,16.88Q1.13,38.57.81,45.44C.56,51.31-1,58.34,1.11,64a.77.77,0,0,0,.89.49.87.87,0,0,0,.93.45A103.3,103.3,0,0,1,26.3,63.78c6.81.41,13.54,2,20.3.29a.83.83,0,0,0,.59-.77c.76-15.62.44-31.11-.32-46.7C46.65,12.09,49.52,1.58,43.3.32Zm2,61.93c-1.17,1.62-5.8,1.08-7.8,1-8.87-.48-17.4-1.55-26.32-.89-1.8.14-4.22,1-6,.63s-1.05,1.29-2-1.28a16.06,16.06,0,0,1-.24-4c-.15-4.65.07-9.31,0-14,0-1.82-.08-3.64-.15-5.46.39-8.66.64-17.3.31-26-.14-3.79-.35-7,4.07-8,5.3-1.24,11.25-1,16.67-1.14C29.48,3,35,1.7,40.66,1.79c1,0,2.94-.15,3.75.57,1.11,1,.92,3.42,1,4.73.06,2.65-.17,5.29-.15,7.94.07,8.71.88,17.4.87,26.14,0,4.64-.06,9.29-.19,13.94C45.85,57.06,46.37,60.72,45.27,62.25Z"/><path class="cls-1" d="M26.91,57.91h0l0-.1a1.13,1.13,0,0,0-.31-.75,2.27,2.27,0,0,1-.16-.57.76.76,0,0,0-.49-.69,1.83,1.83,0,0,0-1.69-.52,1.76,1.76,0,0,0-1.35,1.31,2.15,2.15,0,0,0,.95,2.22l0,0c0,.16.06.31.09.46a.82.82,0,0,0,1.2.49l.48-.29a1,1,0,0,0,.56-.42l.1-.1a.72.72,0,0,0,.36,0,.58.58,0,0,0,.42-.42A.71.71,0,0,0,27,58,.18.18,0,0,0,26.91,57.91Z"/><path class="cls-1" d="M40.64,6.67C37.3,4.13,31.7,5.88,28,6.22,21.94,6.76,16,7,10,7.14c-3.46.08-5.06.8-5.17,4.43-.21,7.39.29,14.84-.06,22.26-.28,6.16-2,12.67.11,18.68A.88.88,0,0,0,6,53.12c.84-.32,1.68-.57,2.53-.81,6.52.35,13.07,0,19.58-.25,3.53-.14,9.57.73,12.52-1.91,2.44-2.2,1.88-6.8,2-9.7.28-7,.16-13.94.53-20.89C43.32,15.71,44.24,9.4,40.64,6.67ZM17,51c.62,0,1.23,0,1.85-.06Zm24.4-27c0,6.7-.12,13.4-.49,20.08-.15,2.72-.3,5-3.25,5.89a16.47,16.47,0,0,1-3.14.54c-9.5-.54-19-2.29-28.26.69-1.47-5.36-.07-11.1.26-16.55a152.94,152.94,0,0,0,.23-20.42,12,12,0,0,1-.15-3.15C7.19,8.55,8.55,9,10.49,8.93c2.27,0,4.51.07,6.78-.06,6.14-.36,12.4-1.78,18.53-1.81C44.11,7,41.48,18.45,41.44,24Z"/><path class="cls-1" d="M153.11,103.14c0,.23,0,.46,0,.68a.63.63,0,0,0,.83.57,6.55,6.55,0,0,0,4.1,1.72c4.77.54,9.83-.49,14.6-.66,1.78-.06,4.35.2,5.73-1.27,2-2.18,1.63-7.27,1.73-9.94.19-5.54-.26-11.13-.33-16.67s.39-11.33.38-17c0-2.72.5-6.35-2.13-8.06-2.25-1.47-6.76-.78-9.23-.8-3.38,0-7.31-.3-10.65.54-1.55.39-2.89.9-3.65,2.19a.32.32,0,0,0-.44.29c-.34,3.67-.6,7.35-.8,11.05-.15,1-.29,2-.37,3a199.56,199.56,0,0,0-.33,25.52C152.44,97.67,152,100.9,153.11,103.14Zm3.24-43.7c1.42-4.75,2.84-5.19,7.26-5.39,2.74-.12,7.57-.82,10.21.07,6.78,2.28,3.65,17.56,3.74,23.45.11,6.42,1.85,14.21.36,20.53-1.28,5.47-4.18,5.18-8.78,5.39-4.14.18-7.51,1.21-11.4-.55-3.41-1.55-2.74-2.48-2.81-5.75-.05-2,0-3.91,0-5.87q0-5.68.11-11.37c.09-5.22.25-10.47.19-15.72A48.39,48.39,0,0,1,156.35,59.44Z"/><path class="cls-1" d="M164.15,100.52a1.75,1.75,0,0,0,2.14.93,3,3,0,0,0,.44-.16,2.78,2.78,0,0,0,.7-.21.76.76,0,0,0,.44-.62,2.27,2.27,0,0,0,.65-2.22A2.13,2.13,0,0,0,167.37,97a3,3,0,0,0-3.63-.36,1.14,1.14,0,0,0-.56,1.16,1.57,1.57,0,0,0-.17.7A2.78,2.78,0,0,0,164.15,100.52Z"/></g></g></svg>