<svg xmlns="http://www.w3.org/2000/svg" viewBox="0 0 100.84 89.22"><defs><style>.cls-1{fill:#fff;}</style></defs><g id="Layer_2" data-name="Layer 2"><g id="ARTBOARD2"><path class="cls-1" d="M.16,87a1.3,1.3,0,0,0,.92,1.2c8.15,2.36,16.81,0,25-1.17,13.5-2,26.68-1.49,40.26-.9,6.14.26,12.28.48,18.43.6,3.57.08,8.16,1.33,11.63.67,5.64-1.06,4.73-4.77,3.6-9.14a1.58,1.58,0,0,0-.27-1.67c-5.56-6.55-6.39-15.93-11.46-22.35.21-7.62-.46-15.22-.45-22.84,0-5.8,1.5-11,2.19-16.72.74-6.06.13-10.47-6.11-12.23C72.41-.78,58.19-.17,46.44.66c-3,.22-5.95.46-8.92.71-3.94-.32-8.15-1.51-12.06-1-1.74.24-3.09,1.08-4.74,1.44-2.85.61-5.92-.34-8.39.21-2.11.47-3.24-.42-4.75,1.64-2.46,3.38.6,12.3.8,15.67.69,12.18,0,24.4.55,36.59C4.71,62.6,2.59,71.66,1,79.15-.33,81.62,0,84,.16,87Zm2.32-4.65c.52.1,1,.19,1.57.25a17.57,17.57,0,0,0,.2,3A3.58,3.58,0,0,1,2.48,82.36Zm4.44.4c.06.55.13,1.11.22,1.67a14.77,14.77,0,0,0,.44,2.2,12,12,0,0,1-1.46-.24,35.54,35.54,0,0,0-.25-3.64Zm2.42,4a11.83,11.83,0,0,0-.44-2.49c-.12-.52-.23-1-.35-1.54.59,0,1.17-.08,1.76-.15,0,1.06,0,2.11.11,3.16,0,.34.06.67.1,1C10.12,86.73,9.73,86.74,9.34,86.73Zm11.29-5.86a6.26,6.26,0,0,1,.22,2.28,9.84,9.84,0,0,0,.09,2.09l-2.73.53c-.16-.79-.48-1.58-.66-2.34a19.47,19.47,0,0,0-.51-2C18.24,81.25,19.44,81,20.63,80.87ZM16.19,84a9,9,0,0,0,.4,2.06c-.6.1-1.2.19-1.81.27-.1-.52-.23-1-.34-1.54-.21-.91-.42-1.82-.68-2.72l2.26-.4A14,14,0,0,0,16.19,84Zm-3.12-1.82c.11,1.37,0,2.94.22,4.34l-1.09.11c-.08-.57-.2-1.13-.26-1.65-.1-.87-.23-1.72-.41-2.57Zm9.62,2.73c-.05-.34-.13-.69-.17-1a16.34,16.34,0,0,0-.32-2,3.09,3.09,0,0,0-.52-1.17c.82-.1,1.64-.19,2.46-.25l.29,0a33.64,33.64,0,0,1,.17,4.14l-.78.11Zm19.93-5.48A10,10,0,0,1,43,81.05a3.93,3.93,0,0,0,.34,1.67s.06,0,.08.07c-.64,0-1.28,0-1.92,0a3,3,0,0,0-.11-.61c-.18-.51-.36-1-.56-1.54s-.31-.79-.5-1.18Zm-3.71.16a17.25,17.25,0,0,0,.47,2.23A7.77,7.77,0,0,0,39.73,83c-.73,0-1.46.08-2.18.14a7.8,7.8,0,0,0-.63-1.77c-.21-.55-.43-1.08-.66-1.61Zm-4,.21c.17.81.32,1.62.53,2.43a5.72,5.72,0,0,0,.35,1c-1,.08-2,.21-2.92.31A11.55,11.55,0,0,0,32,80ZM31.17,80a12,12,0,0,1,.12,1.86,7.19,7.19,0,0,0,.16,1.79c-.77.09-1.54.17-2.3.27a6.77,6.77,0,0,0-.48-2.46,10.85,10.85,0,0,0-.45-1.28Zm-4.41.28a17.7,17.7,0,0,0,.18,1.94,4.4,4.4,0,0,0,.57,1.93l-1.19.17a8.51,8.51,0,0,0-.84-4Zm17.63,2.48a.66.66,0,0,0,.15-.22c.33-1-.19-2.2-.7-3.18l2.35-.07c.11.76.22,1.52.3,2.28,0,.39.07.78.14,1.16C45.88,82.75,45.13,82.77,44.39,82.78Zm19.27-3.17c0,.47.05.94.1,1.41a5.12,5.12,0,0,0,.56,2.14c0,.07.1.09.16.13L62,83.19A12.06,12.06,0,0,0,61.1,81a9.11,9.11,0,0,0-.81-1.51C61.41,79.51,62.54,79.55,63.66,79.61ZM59,79.41a36.17,36.17,0,0,0,1.14,3.7L56.88,83a9.44,9.44,0,0,0-.5-1.7c-.22-.66-.44-1.33-.67-2l1,0C57.48,79.33,58.26,79.38,59,79.41Zm-4.45-.14a16.8,16.8,0,0,0,.66,3.65l-2.83-.07c-.13-.52-.33-1-.51-1.54l-.74-2.07Q52.88,79.24,54.59,79.27Zm-4.07,0a26.94,26.94,0,0,0,.56,3.57c-.86,0-1.72-.06-2.58-.07A9.72,9.72,0,0,0,48.07,81a12.38,12.38,0,0,0-.7-1.72Q48.95,79.25,50.52,79.25Zm14.83,4.08a.64.64,0,0,0,.29-.53,7.16,7.16,0,0,0-.52-2.12c-.1-.33-.16-.67-.25-1l2.06.13c.34,1.07.42,2.22.66,3.33a.58.58,0,0,0,.15.29Zm24.42-2.25a16.33,16.33,0,0,0,.37,3.18H88.62c-.21-.62-.53-1.25-.69-1.82s-.25-1-.38-1.43Q88.65,81.07,89.77,81.08Zm-3.58,3.14-1.21,0a10.7,10.7,0,0,1-.75-1.61c-.16-.58-.29-1.17-.42-1.75l2,.11A11,11,0,0,0,86.19,84.22Zm-3.74-3.48A11.86,11.86,0,0,0,83,84.08l-2-.11a5.71,5.71,0,0,0-.4-2.61,6.88,6.88,0,0,0-.32-.74Zm-3.33-.18c0,.39.11.79.17,1.18a15.68,15.68,0,0,0,.35,2.16l-1.57-.07a.86.86,0,0,0,.38-.42c.33-.83-.19-1.83-.5-2.61a3.05,3.05,0,0,1-.13-.32Zm-2.89-.17c.06.34.11.68.18,1a3.5,3.5,0,0,0,1.07,2.4h0l-4-.15A3.67,3.67,0,0,0,73,81.49c-.2-.45-.42-.9-.63-1.35Zm-4.91-.31c.17.56.34,1.13.5,1.7a6,6,0,0,0,.7,1.85c-1.22,0-2.44-.09-3.66-.15a.61.61,0,0,0,.23-.55,7.74,7.74,0,0,0-.89-3.05Zm21,4.28c-.21-.52-.42-1-.58-1.57s-.37-1.15-.56-1.73c.64,0,1.26-.06,1.89-.12.06.36.15.73.2,1a7.07,7.07,0,0,0,.8,2.67C93.44,84.57,92.85,84.45,92.27,84.36Zm3.42.25a.91.91,0,0,0,.08-.62,22,22,0,0,0-.64-2.38c-.1-.3-.18-.62-.29-.93a14.47,14.47,0,0,0,2.9-.83l.12.35A8.16,8.16,0,0,0,98,82.4,3.19,3.19,0,0,1,95.69,84.61ZM15.2,54.19c-2.06-5.63-.31-12,.26-17.72.52-5.26-.08-10.5.07-15.78.09-3.12-.35-7.68,3.34-9.32,1.69-.75,7.94.64,9.78.74,6.88.36,13.68-.47,20.54-.75,6.41-.27,12.82-.82,19.23-1,7.42-.24,13.74-1.53,14.8,7.69.62,5.39-.44,11.08-.67,16.48-.3,6.64.28,13.25.15,19.88C76.31,56.83,61.28,56,57.07,56c-8.36,0-16.82.26-25.17-.22C26.3,55.45,20.75,54,15.2,54.19ZM84.88,37l0,.93c.11,3,1.94,11.77.45,14.57a2.86,2.86,0,0,1-.5.64C84.61,47.78,84.74,42.37,84.88,37ZM85.11,8.1c4.07,4.66.69,11.35-.1,17.11a89.79,89.79,0,0,0-1.32-15.14.79.79,0,0,0-.57-.57C73,7.06,62.47,9,52.2,9.12c-12.23.18-24.39,0-36.6.07a1.13,1.13,0,0,0-1,.8c-1.73,8.47-.44,16.84-1.1,25.34-.49,6.39-2.41,12.88-.16,19-.46,0-.93.12-1.39.2v0s0,0,0-.06a.82.82,0,0,0-.06-.79c-.25-8.07-.11-16.14-.17-24.22,0-5.36-3.12-18.32.43-22.11a4.35,4.35,0,0,1,2.7-1.72C16,5.77,17.25,6,18.47,6c4.1.17,8.19-.53,12.27-.84,8.94-.68,18-1.67,27-1.44C64.87,3.91,80.38,2.67,85.11,8.1ZM6.65,70.79C8,66.44,8.9,62,10.48,57.82a1.56,1.56,0,0,0,.37,0c5.69-1.51,11.06,0,16.73.62a174.25,174.25,0,0,0,19,.46c13.37-.09,26.53-1.08,39.87-1.74,1.87,3.07,2.71,7.25,4.16,10.39a50.94,50.94,0,0,0,5.69,9.59c-5.8,2.24-14.88.38-20.66,0-12.16-.69-24.08-1.43-36.25-.57-9.68.69-19,1.3-28.56,2.6-1.49.2-5.5,1.36-6.5-.69C3.86,77.61,6.36,71.72,6.65,70.79Z"/></g></g></svg>