<svg xmlns="http://www.w3.org/2000/svg" viewBox="0 0 77.09 83.94"><defs><style>.cls-1{fill:#fff;}</style></defs><g id="Layer_2" data-name="Layer 2"><g id="ARTBOARD2"><path class="cls-1" d="M.93,52.26A37.7,37.7,0,0,0,18.32,76.93a47.14,47.14,0,0,0,8.88,5.91,1.09,1.09,0,0,0,1.46-1.46,39.63,39.63,0,0,0,7,1.26c.13.13.24.27.37.4a1.51,1.51,0,0,0,2.37-.25A40.8,40.8,0,0,0,43,82.62a1.73,1.73,0,0,0,2.48,1.11,9.22,9.22,0,0,0,2.08-1.82,40.33,40.33,0,0,0,11.31-4.32C79.8,65.68,81.32,38.25,70.4,18.89A36.49,36.49,0,0,0,45.8.94C45.52.73,45.26.5,45,.3a.68.68,0,0,0-1,.31A37.57,37.57,0,0,0,38.07.17.21.21,0,0,0,37.79,0l-.4.17a38.48,38.48,0,0,0-37.32,41A42.37,42.37,0,0,0,.93,52.26ZM47.14,4.72A40.43,40.43,0,0,1,54.31,17.6C49.39,20.12,44.26,22,38.43,21.89a24.17,24.17,0,0,1-11.6-3.45A52.12,52.12,0,0,1,34.9,4,35,35,0,0,1,47.14,4.72ZM57.07,37H39.15q-8,0-16,.06a63,63,0,0,1,2.61-15.3,38,38,0,0,0,10.23,3c7.07.87,13.27-1.23,19.23-4.22A58.9,58.9,0,0,1,57.07,37ZM54.46,55.9c-9.55-4.16-20.62-5.46-30.08-2.41A65.72,65.72,0,0,1,23,40.43q8.07,0,16.13,0H56.93c0,.22,0,.44,0,.66A85.65,85.65,0,0,1,54.46,55.9ZM3.14,39.59c4.77,1.21,10.23.77,15.05.81h2A59.57,59.57,0,0,0,21.3,54.65a28.18,28.18,0,0,0-11.1,8.77A45,45,0,0,1,3.14,39.59Zm28.05-35,.07,0A34.92,34.92,0,0,0,24.42,17c-2.54-1.56-5-3.27-7.8-4.73A49.06,49.06,0,0,1,31.19,4.6ZM8.92,20.53a35.86,35.86,0,0,1,6.4-7.17c1.52,2.92,4.55,5.35,8,7.2a105.43,105.43,0,0,0-2.8,15.06c-.06.47-.09.94-.13,1.41H19.34c-5.19,0-11-.51-16.16.81a37.19,37.19,0,0,1,.91-6.53A35.4,35.4,0,0,1,8.92,20.53Zm8.16,51.71a53.31,53.31,0,0,1-5.78-7.13,39.61,39.61,0,0,1,10.81-7A57.22,57.22,0,0,0,32.49,78.92,36.89,36.89,0,0,1,17.08,72.24Zm20,7.24A54.55,54.55,0,0,1,25.18,56.9a38.89,38.89,0,0,1,28.58,1.62c-.39,1.38-.81,2.76-1.26,4.12a84.37,84.37,0,0,1-4.07,10.18,59.07,59.07,0,0,1-3,6.17A36.82,36.82,0,0,1,37.08,79.48Zm26.16-9.32a34.81,34.81,0,0,1-13,7.65A96,96,0,0,0,54.9,65.9q1-2.9,1.87-5.86a43.69,43.69,0,0,1,9.08,6.72,1.46,1.46,0,0,0,.33.24A29.12,29.12,0,0,1,63.24,70.16Zm4.66-5.49a44.76,44.76,0,0,0-10.41-7.33A92.61,92.61,0,0,0,60,41.15l0-.64c4.48.08,9.08.31,13.46-.55C74.35,48.69,72.69,57.52,67.9,64.67Zm5.31-27.25c-4.26-.78-8.71-.52-13-.48a59.86,59.86,0,0,0-2.34-17.88c2.06-1.12,4.09-2.3,6.13-3.47A47,47,0,0,1,73.21,37.42ZM62,13.3c-1.71,1-3.41,2-5.12,2.93A36.34,36.34,0,0,0,51,5.94,29.66,29.66,0,0,1,62,13.3Z"/></g></g></svg>