<svg xmlns="http://www.w3.org/2000/svg" viewBox="0 0 89.15 77.46"><defs><style>.cls-1{fill:#fff;}</style></defs><g id="Layer_2" data-name="Layer 2"><g id="ARTBOARD2"><path class="cls-1" d="M81.2,41c.62-2.15,2-4,2.65-6.21a17.23,17.23,0,0,0,.33-7.39C82.55,17.58,74,9.46,65.54,4.9A37.28,37.28,0,0,0,50.78.45,23.26,23.26,0,0,0,46,0,21.42,21.42,0,0,0,27.89,10.85a26.16,26.16,0,0,0-2.24,4.39,21.07,21.07,0,0,0-1.12,3.84c-8.3,4.21-15.31,11.18-18.39,19a18.75,18.75,0,0,0,.62,15.26C8.9,58.06,8,61.15,5.91,65.74A82,82,0,0,1,.17,75.9C-.51,77,1,78,1.85,77.19A90.72,90.72,0,0,1,10,71c2.74-1.92,5.46-4.45,8.37-6.07,3.08-1.71,7.55-.58,11.5-.06a.55.55,0,0,0,1,.11,16.54,16.54,0,0,0,1.83.1.84.84,0,0,0,.29.39c.21.14.52-.15.36-.36a.06.06,0,0,1,0,0c.83,0,1.66-.1,2.49-.18a.52.52,0,0,0,.25.41l.06,0a.52.52,0,0,0,.76-.56c7.35-.89,14.7-3.54,20.22-8.51A21.94,21.94,0,0,0,61.85,50c2-.36,4-1,5.93-.91,3.24.16,6.33,3.51,8.9,5.32a123,123,0,0,1,10.62,8c.86.76,2.36-.22,1.67-1.3C85.66,55.85,79.36,47.44,81.2,41ZM21.07,61.94a9.28,9.28,0,0,0-1.7.24c1.58-5,2.42-10.15,3.94-15.13,1.22-4,3.07-8.2,3.59-12.44a21.54,21.54,0,0,0,1.35,2.32c-.31.85-.39,3-.62,3.89-.29,1.18-.66,2.35-1.06,3.51-.79,2.3-1.76,4.53-2.6,6.81C22.72,54.52,21.28,58.3,21.07,61.94Zm-9,4.62c2-8.11,4.19-16.16,6.83-24.08,1.73-5.17,4.49-10.64,5.58-16.17,0,.23.09.46.14.69.09.74.22,1.47.38,2.2C22.67,35,21.68,41.45,19.76,47.37c-1.79,5.51-2.4,12.18-5.07,17.34Zm3.21-38.2c.23-.22.45-.44.69-.65l1-.5c-1.56,3.67-2.1,8.34-3.1,11.85-.9,3.14-1.77,6.26-2.47,9.45-.39,1.8-1.38,4.38-1.76,6.6-.18-.54-.39-1.08-.62-1.61C12.2,45.56,12.26,36.37,15.27,28.36ZM10.13,56.84c1.7-5.21,2.6-10.68,4.07-16,1.24-4.42,2-9.67,3.67-14.1,1-.48,1.95-1,2.93-1.53-.68,3.36-2.12,6.56-3.23,9.81-1.32,3.84-2.64,7.69-3.83,11.56-1.33,4.32-2.39,8.67-3.52,13A8.58,8.58,0,0,0,10.13,56.84Zm.43-23A44.82,44.82,0,0,0,8.73,39c-.61,2.46-1.31,4.88-2,7.31A19.93,19.93,0,0,1,10.56,33.82ZM6.86,47.37a.22.22,0,0,0,.19-.13,43,43,0,0,0,2.21-7.52c.55-2.33,1.37-4.57,2-6.88.52-.69,1.07-1.37,1.64-2-.45,3.06-1.67,5.92-2.51,8.92-.94,3.32-1.69,6.72-2.55,10.06a.13.13,0,0,0,.23.1c1.95-3.1,1.86-7.15,2.8-10.62.79-2.93,1.9-5.74,2.26-8.71.4-.45.82-.88,1.24-1.31A91.1,91.1,0,0,0,12,38.67c-1.1,4.48-1.78,9.45-3.39,13.83A21.31,21.31,0,0,1,6.86,47.37ZM9,64.07c-.6,2.07-1.24,4.12-2,6.16-.56.42-1.12.84-1.67,1.27A49.51,49.51,0,0,0,9,64.07Zm-.76,5.25C10.94,61.4,12.5,53.25,15,45.26c1.28-4.12,2.68-8.21,4-12.32A54.7,54.7,0,0,0,21.24,25l2.93-1.62c0,.24,0,.48,0,.72-1,6.73-4.48,13.43-6.64,19.73a233.11,233.11,0,0,0-6.43,23.39C10.16,67.91,9.2,68.61,8.24,69.32Zm7.89-5.61L16,63.8c1.9-4.3,2.29-9.42,3.7-13.83,2.09-6.53,3.36-13.43,5.49-19.94a22.37,22.37,0,0,0,1.3,3.71C23.82,43.2,20,52.69,18.57,62.42A10.16,10.16,0,0,0,16.13,63.71Zm5.63-1.78c1.39-4.14,2.3-8.42,3.83-12.53,1.42-3.83,3-7.69,3.12-11.79.28.38.57.76.87,1.13s.73.85,1.11,1.25C30,41.44,30,43.5,29.5,45c-.68,2-1.47,4-2.25,6s-1.73,4-2.4,6.15A12.63,12.63,0,0,0,24,60.35a6.23,6.23,0,0,0,.43,1.84A19.7,19.7,0,0,0,21.76,61.93Zm6.41.78c1.25-3.37,1.95-6.92,2.91-10.38.83-3,1.83-5.87,1.59-9a.27.27,0,0,0-.54,0l-.06.63c0,.09.12.1.16,0-.84,1.11-1.06,4.16-1.47,5.55-.37,1.22-.76,2.43-1.1,3.65-.87,3.14-1.77,6.26-2.65,9.4l-2.17-.33a81.37,81.37,0,0,1,3.87-12.48c1.1-2.94,2.47-6.05,2.54-9.22a27.57,27.57,0,0,0,4,3.26c-1.61,6.27-4.43,12.56-5.23,19l-1.19-.07Zm2.95.16c1.06-6.33,4.72-12.55,4.31-18.91a33.69,33.69,0,0,0,5.26,2.84C40,49.93,38.87,52.9,38,56c-.57,2.07-1.45,4.42-1.93,6.66q-1.26.14-2.52.18c1.32-5.74,4.65-11.26,4.35-17.31,0-.1-.17-.14-.19,0C37,48.91,36,52.23,35,55.59c-.7,2.44-1.84,4.68-2.43,7.13a.44.44,0,0,0-.12.15C32,62.87,31.55,62.88,31.12,62.87ZM55.23,50.14l1.35.07a10.83,10.83,0,0,0-.6,3.24c-.57.54-1.17,1.06-1.77,1.56.12-.6.2-1.22.34-1.73A28.84,28.84,0,0,0,55.23,50.14Zm-1.82,3.5A7.12,7.12,0,0,0,53,56l-.79.58c.35-2.19,1.09-4.34,1.11-6.55l1.18.11C54.11,51.26,53.73,52.44,53.41,53.64Zm-2.25,4.22-.92.53c0-.13,0-.24,0-.3.11-1,.3-1.9.47-2.85a35.43,35.43,0,0,1,1-4.91c.07-.2-.26-.35-.35-.15-.34.8-2.24,6.57-2.1,8.68q-1.29.64-2.64,1.2a19.46,19.46,0,0,1,1.38-5.17c.57-1.6,1.46-3.65.76-5.34-.08-.21-.43-.13-.35.1.79,2.31-1.19,5.36-2,7.46-.27.71-1,2.29-.72,3.31l-1,.34c1.34-3.67,2.38-8.14,1.89-11.93a46.77,46.77,0,0,0,5.41,1l.82.09C52.5,52.61,51.16,55.14,51.16,57.86Zm-7.49,3.27-1.47.42c1.87-4,1.45-9,2.77-13.2.53.15,1.05.3,1.58.43C45.64,52.93,44.68,57,43.67,61.13Zm-2.32.63-1,.23c.37-1.42.47-3.12.63-4,.65-3.43,1.87-6.86,1.91-10.37.48.17,1,.34,1.47.49C42.57,52.4,42.31,57.26,41.35,61.76Zm-1.42-4c-.3,1.39-.91,3-1.17,4.54l-1.29.2c.18-.71.37-1.41.54-2.12.43-1.81.79-3.64,1.24-5.45a62.1,62.1,0,0,0,1.67-8c.42.18.85.35,1.28.51C41.88,50.92,40.67,54.31,39.93,57.75Zm17-5.22c0-.33.06-.66.11-1s.13-.89.19-1.33c.59,0,1.18,0,1.77,0A26.91,26.91,0,0,1,56.91,52.53ZM73,48.84c-4.46-3.1-7.65-1.31-12.66-.94-7.46.56-15.9-1-22.56-5a.61.61,0,0,0-.22-.72,33.36,33.36,0,0,1-9-9A23.57,23.57,0,0,1,31.37,9.11c.37-.41.75-.81,1.15-1.18C37.85,2.89,45,1.61,52,2.58c7.33,2,14.34,7.12,21.22,10.27,5.67,5.08,9.83,11.69,9.18,18.88-.44,4.86-4.33,8.52-3.38,13.54a37.37,37.37,0,0,0,4.76,11.35C80.27,53.89,76.61,51.34,73,48.84Z"/></g></g></svg>