<svg xmlns="http://www.w3.org/2000/svg" viewBox="0 0 162.51 118.65"><defs><style>.cls-1{fill:#fff;}</style></defs><g id="Layer_2" data-name="Layer 2"><g id="ARTBOARD2"><path class="cls-1" d="M146.85,30c-.63-9.11-3.38-17.76-12.74-21.37a31.77,31.77,0,0,0-29.32,3.63C103.35,3.68,89.72-.81,82.3.12c-9.06,1.14-23.19,9-24.43,19.14-8.71-2.43-20.55-6.34-25,4.27a25.23,25.23,0,0,0-1.56,8.34,29.71,29.71,0,0,0-2.86.92C19,36.39,16.3,45.06,15.66,54.16,3.53,50.34-2.57,65.56,1,76c2.35,6.83,7.86,9.62,12.84,14.2,2.63,2.42,2.37,2.43,1.57,5.3s-3.29,5.81-4.61,8.41a140.53,140.53,0,0,0-5.76,13,1.36,1.36,0,0,0,1.31,1.73c5.73-.74,11.14-3.33,16.13-6.14a69,69,0,0,0,8-5.23c1.07-.81,2.11-2,3.25-2.72,2.17-1.33.79-1.29,3-.37,3.44,1.42,6.21,4.54,9.8,6A22.37,22.37,0,0,0,56,111.93a15.27,15.27,0,0,0,6.69-2.12.84.84,0,0,0,1.14-.57s0-.08,0-.11c1.38-.86,2.71-1.81,4.07-2.74a.66.66,0,0,0,1.06-.5c0-.07,0-.14,0-.21.51-.34,1-.67,1.55-1,3.34,5.22,9.54,7.84,15.7,7.57a.85.85,0,0,0,1.4-.11,18.71,18.71,0,0,0,5.84-1.63c1.94-.91,3.23-2.64,5-3.67a11.15,11.15,0,0,1,8-1.54c.6.13,1.06.81,1.68,1a13,13,0,0,0,8.23.12,1,1,0,0,0,1.75-.63.76.76,0,0,0,0-.15c5.63-3.15,12.53-14.82,12.53-23.71A13.7,13.7,0,0,0,131.86,83,69.54,69.54,0,0,0,140,88.35c5,2.81,10.4,5.4,16.13,6.14a1.37,1.37,0,0,0,1.32-1.73,141.93,141.93,0,0,0-5.77-13c-1.27-2.51-2.61-5-4-7.4-1.89-3.27-1.85-3.71,1-6.32,5-4.59,10.48-7.34,12.85-14.2C165.08,41.41,159,26.18,146.85,30ZM31.9,40.81h0c-2.31,1.57-2.68,5.06-3.19,7.61-1.3,6.48-2.68,12.83-4.34,19.25l-.12.51c.87-5.4,1.83-10.78,3.17-16.09,1.46-5.81,3.29-11.46,3.58-17.42h0l.26-.07A38.93,38.93,0,0,0,31.9,40.81ZM15.58,113.18q2.22-9.37,4.08-18.81l.73-1.24a1.63,1.63,0,0,0,.11-.31,142.61,142.61,0,0,1-3.17,19.58C16.75,112.68,16.17,112.94,15.58,113.18Zm.12-12q1-1.82,2.1-3.63c-1.09,5.36-2.23,10.71-3.47,16a.41.41,0,0,0,0,.11l-1.2.44c.51-2.29.7-4.78,1.25-7C14.85,105.13,15.22,103.14,15.7,101.17Zm4.88-9a1.27,1.27,0,0,0-.34-.75q.54-2.81,1-5.61C21,87.9,20.81,90,20.58,92.14Zm9.83-57.26c-2.19,12.77-6.1,25.19-8.14,38-.93,5.9-2,11.77-3.09,17.62-.41-.31-.81-.62-1.23-.92,2.38-9.06,3.52-18.43,5.32-27.61,1.62-8.27,3.48-16.83,3.3-25.3A17.5,17.5,0,0,1,30.41,34.88Zm-6.89,4.37a16.66,16.66,0,0,0-.94,4.47c-.7,4.71-1.38,9.34-2.37,14-2.05,9.65-4.32,19.27-6.5,28.89l-1.36-1c3-14.8,7.52-29.43,9.62-44.37A15,15,0,0,1,23.52,39.25Zm-6.92,18a1.46,1.46,0,0,0,.81-.08c-2.2,9.22-4.24,18.5-5.89,27.77q-.67-.51-1.32-1c1.17-4.54,2.59-9,3.74-13.56C15,66,15.36,61.58,16.6,57.28Zm1.77-4a28,28,0,0,1,2.54-10.16Q19.62,48.15,18.37,53.25Zm-4.73,3.07C9.91,63.59,8.82,72.65,6.87,80.6a18.41,18.41,0,0,1-1.23-1.67C9,71.7,8.25,63.34,12,56.22a.61.61,0,0,0,0-.11A8.93,8.93,0,0,1,13.64,56.32Zm-10,18.27a.51.51,0,0,0,.3-.41,71.63,71.63,0,0,1,4.61-17.4,6.71,6.71,0,0,1,2.53-.66c-4,6.49-3.53,14.6-6.25,21.61A14.74,14.74,0,0,1,3.68,74.59ZM7.15,57.71A52.3,52.3,0,0,0,3.23,72.34C2.46,67,3.65,60.63,7.15,57.71Zm.46,23.72c3.74-7.64,3.7-16.93,6.74-24.93.43.12.88.28,1.34.46C14.2,61.19,14,65.71,12.87,70.07S10.21,78.74,9.4,83.2A24.93,24.93,0,0,1,7.61,81.43Zm7,5.82c3.94-16.07,8-32.49,9.85-48.93a14.45,14.45,0,0,1,1.34-1.09c-1,9.09-2.43,18-4.19,27-1.49,7.66-4.71,17.48-4.12,25.1l-.13-.09a.38.38,0,0,0-.12-.09Zm-.43,16.64c-.19.77-.38,1.55-.58,2.32-.14.56-1.21,6.4-1.56,8.31-1.17.38-2.34.71-3.48,1A117.8,117.8,0,0,1,14.18,103.89Zm4.19,8c2.94-12.25,2.43-25,5.13-37.26,1.48-6.67,3.64-13.19,5-19.89.86-4.25.74-9.76,3.54-13.33a27,27,0,0,0,.92,3.3C31.5,49.09,31,54,29.81,58.36c-1.6,5.92-2.64,11.92-3.65,18s-2.33,12.35-3.24,18.56c-.55,3.8-2.91,11-1.23,14a.46.46,0,0,0-.84.35l0,.18a.49.49,0,0,0,.93,0c1-3,1.14-6.25,1.51-9.38C24.23,92.6,25.75,85.31,27,78c1.77-10.53,3.7-21.53,6.46-31.92a14.33,14.33,0,0,0,2,3.34c-3.58,2.68-4.22,7.48-3.19,12.6-1.15,7.75-3,15.46-4.15,23.18C27,92.1,27.5,101,25.18,107.87A53.46,53.46,0,0,1,18.37,111.9Zm8.41-5.19c1.89-6.6,1.48-15.29,2.36-21.27.94-6.37,2.93-13.28,4-20.08l.3.85c-.78,5.67-1.27,11.42-1.89,17.1-.33,3.08-.56,6.16-.77,9.24s-2.05,8.69-1.49,12.15C28.48,105.39,27.65,106.06,26.78,106.71ZM35.4,99.6c1.93-3.65.9-9.41.93-13.27S37.69,76,36,72.36a.08.08,0,0,0-.14,0c-1.63,3.24-.86,8.86-1,12.43-.17,5.06-.57,10.07-.84,15.1,0,0-.08,0-.1.08a36.51,36.51,0,0,1-3.15,3.38c1.08-5.43,1.17-11,1.67-16.51.56-6.21,1.79-12.64,1.65-18.93a38.54,38.54,0,0,0,4.33,7.8c-1.7,8.15-.57,16.48-1.72,24.7l-1-.68A1.34,1.34,0,0,0,35.4,99.6Zm9.41-4c.07,3.44-.56,6.89.12,10.28-1.11-.61-2.2-1.27-3.28-2,1.43-1.92.76-5.75.73-7.85-.09-5.28.09-10.55.07-15.83a12,12,0,0,0,2.16,1.47C44,86.31,44.72,90.89,44.81,95.56Zm-4.36,7.5c-1.1-.76-2.19-1.53-3.27-2.3a12.43,12.43,0,0,0,1.19-4.67c.13-2,.11-4.07.1-6.1a100.43,100.43,0,0,1,.47-13.56,26,26,0,0,0,2.48,2.82C41.12,87.11,40.23,95.24,40.45,103.06Zm6,3.55v0c0-.47-.11-.93-.17-1.4a.69.69,0,0,0-.07-.15c-.42-3.41.15-6.9-.05-10.34-.25-4.28-.67-8.59-1.16-12.85a12.44,12.44,0,0,0,4,1.12,151,151,0,0,0,.68,24.88A22.37,22.37,0,0,1,46.48,106.61Zm9.19,1.93a16.31,16.31,0,0,1-3.78-.2c0-.58.07-1.16.12-1.73a.41.41,0,0,0-.65-.35c-.65-7.75-.86-15.51-1.51-23.26a10.54,10.54,0,0,0,2.95-.35c-.67,8-.85,16.91,1.38,24.51a.58.58,0,0,0,1,.25l.25-.2a.35.35,0,0,0-.07-.54,44.11,44.11,0,0,0-.19-4.48c-.23-2.26-.48-4.51-.65-6.78s-.26-4.56-.34-6.85c0-1.31-.08-2.62-.14-3.93a2.74,2.74,0,0,0-.24-2.28c1.36-.5,2.41-1.08,3.46-1.44-.32,5-.61,10-.64,15,0,4.15.69,8.25.7,12.38A10.4,10.4,0,0,1,55.67,108.54ZM67.2,85.7c-1.47,3.07-.93,7.86-1,11.22a32,32,0,0,0,.23,6.45c-1,.71-2,1.43-3,2.1-.23-3.66.12-7.32,0-11-.19-4.29-.76-8.54-.92-12.84.27.15.55.3.84.48,1.54.93,2.75,2.32,4.21,3.39A.4.4,0,0,0,67.2,85.7ZM61.8,96.54c0,3.38-.33,6.67,0,10a16.34,16.34,0,0,1-3,1.38c.08-4-.75-8-.79-12,0-5.08.11-10.15,0-15.23a5.61,5.61,0,0,1,3.38.41C61.08,86.26,61.82,91.38,61.8,96.54Zm6.54,4.85a52,52,0,0,1-.1-6.24c.08-2.84,1-6.58-.15-9.27q.36.23.75.42c.55.26,1.11.5,1.68.71,0,2.85.24,5.71.22,8.57,0,1.66-.42,3.61-.51,5.44-.61.31-1.2.66-1.78,1C68.41,101.83,68.37,101.61,68.34,101.39Zm4-.14a27.74,27.74,0,0,0,.23-5.08,61.39,61.39,0,0,0-.46-8.66,18.3,18.3,0,0,0,2.72.5,155.81,155.81,0,0,0-.61,16,13.28,13.28,0,0,1-1.6-2.49A1.43,1.43,0,0,0,72.34,101.25Zm5.92,6.07c-.52-6.28.79-12.83-.52-18.93,0-.16-.25-.13-.3,0-1.58,4.06-1,9.7-.88,14,0,.61-.1,2.27,0,3.94-.22-.16-.43-.34-.64-.51a141.17,141.17,0,0,0-.54-17.7,19.37,19.37,0,0,0,6.26-.46c.59,4.56-.1,9.46-.3,14,0,.41-.81,7.59,1,6.67,1.57-.78.59-8.41.61-10,0-2.89.92-7.75-.39-10.87A19,19,0,0,0,85,86.5c.22,3.62.28,7.15.28,10.79s-.43,7.74.11,11.5A14.78,14.78,0,0,1,78.26,107.32Zm9.07,1.31c-.39-4.74-.28-9.48-.46-14.24-.09-2.21.22-6.34-1.58-8a16.88,16.88,0,0,0,3.77-2.46c0,4.38,1.11,8.72,1,13.12-.1,3.67-.56,7.36.37,10.92a11.82,11.82,0,0,1-1.39.41C88.46,108.46,87.89,108.55,87.33,108.63Zm5.16-1.69c0-.33-.11-.73-.24-1.51-.06-.35-.37-.36-.6-.21-.33-3.18.09-6.39-.07-9.64-.2-4.14-1.19-8.23-1.79-12.33A15.49,15.49,0,0,0,92,80.55l.78.47c.27,4.63.73,9.24.77,13.88,0,3.79-.29,7.39.46,11C93.5,106.3,93,106.63,92.49,106.94Zm3-2.15c-1.37-7.52-.36-15.46-1.66-23.1,1,.64,1.92,1.31,2.87,2-.45,6.46.37,13.1.71,19.56C96.72,103.74,96.09,104.27,95.46,104.79ZM99.07,102c-.07-5.83-.73-11.74-1.28-17.55A29.68,29.68,0,0,0,100.55,86c.26,3.33.22,6.61.27,10a14.85,14.85,0,0,0,.43,4.81,9.73,9.73,0,0,0-2.06,1.07Zm4-1.49c-.07-.62-.22-1.26-.31-2-.2-1.71-.19-3.43-.28-5.14a27.37,27.37,0,0,0-1-6.86,15.63,15.63,0,0,0,2.72,1c0,.06,0,.13-.08.19a.18.18,0,0,0,.31.18l.2-.24a59.44,59.44,0,0,1,.49,7.09,34,34,0,0,0,.3,6.38A5.83,5.83,0,0,0,103.08,100.46Zm4.23,1.56a.81.81,0,0,0,0-.37c-.68-4.15.59-9.94-1.31-13.93l.54.06a18.91,18.91,0,0,0,5.23-.46,52.08,52.08,0,0,0,.4,16.43,8.57,8.57,0,0,1-1.77-.32c0-1.32,0-2.63,0-4a.35.35,0,0,0-.63-.19c-.37-3.37-.55-6.73-.95-10.14,0-.25-.43-.26-.4,0,.43,4.39-.64,9.22.2,13.56C108.15,102.49,107.72,102.26,107.31,102Zm8.8.82a8.68,8.68,0,0,1-2,.79c-.7-5.49-.71-11.06-1.51-16.51a25.16,25.16,0,0,0,3-1C115,91.6,115.93,97.31,116.11,102.84Zm2.16-1.48c0-.19,0-.38,0-.57.1-.75.22-1.5.37-2.26a.41.41,0,0,0-.46-.51,84.11,84.11,0,0,0-1.55-12.33,20.15,20.15,0,0,0,2.43-1.4,57,57,0,0,0-.33,9.51c.08,1.66,0,4.4.88,6.3C119.16,100.55,118.72,101,118.27,101.36Zm9.15-18.52c-.06-.3-.12-.61-.16-.91-.1-.84-.2-1.67-.36-2.5l.15-.08A11.48,11.48,0,0,1,127.42,82.84Zm-1.79-2.76c0,2.35,0,5,1.21,6.73A28.43,28.43,0,0,1,125,92c0-.44-.09-.89-.13-1.37-.24-3.24-.52-6.45-1-9.66A13.61,13.61,0,0,1,125.63,80.08ZM123.13,91a15.65,15.65,0,0,0,.19,2.91,2.85,2.85,0,0,0,.34.77,30.29,30.29,0,0,1-2.52,3.72c-1.28-4.7-1.08-9.87-1.15-14.72,1.06-.75,2.1-1.54,3.17-2.23A62.13,62.13,0,0,0,123.13,91ZM157.39,54c-3.43,5.78-9.92,9-15,13.1a1.54,1.54,0,0,0-.24,1.85c4.27,7.25,8.64,14.55,11.83,22.35a50.24,50.24,0,0,1-24-14,9.39,9.39,0,0,0-.64-1.36l-.41.14-.26-.31a1.5,1.5,0,0,0-1.82-.23c-5.91,4.1-12.25,9.5-20,8.8-5.82-.52-9.64-5-14.65-7.57a1.71,1.71,0,0,0-2.3.61c-3,6-8.5,7.66-14.82,6.94-5.24-.6-7.5-3.79-11.57-6.52-6.33-4.24-7.44,1.88-13.66,1.8-6.43-.09-10.63-7.59-12.46-12.81-1.45-4.11-3.82-13.22,1.34-15.7,1.88-.9.24-3.65-1.63-2.79h0c-4.13-5.31-4.18-18.77-2-23.78,4.23-9.7,16-4.53,23.6-2.5a1.27,1.27,0,0,0,1.58-1.21c-.11-9.15,13-16.1,20.64-17.83,6.93-1.56,22.38,2.6,21.35,11.78-.13,1.24,1.46,1.57,2.22.92a29.13,29.13,0,0,1,27.05-5.22c10,3,12.49,12,12.77,21.35a1.34,1.34,0,0,0,2,1.15C159.25,27.26,162.06,46.18,157.39,54Z"/></g></g></svg>