<svg xmlns="http://www.w3.org/2000/svg" viewBox="0 0 140.86 141.55"><defs><style>.cls-1{fill:#fff;}</style></defs><g id="Layer_2" data-name="Layer 2"><g id="ARTBOARD2"><path class="cls-1" d="M123.44,76.55c-.86,3.08-1.67,6.18-2.46,9.31-.1.22-.2.44-.31.66a.78.78,0,0,0,0,.65,1,1,0,0,0,0,.17.72.72,0,0,0,1.39.38c0-.13.06-.26.1-.39a29.08,29.08,0,0,0,5.82-5.21c3.06,4.17,5.83,8.52,9.66,12.06A.84.84,0,0,0,139,93.6c.1-2.8-.89-5.28-1.55-7.95-.78-3.17-1.26-6.42-1.77-9.64a44.91,44.91,0,0,1,4.79-2.44c.76-.32.33-1.46-.39-1.47a23.79,23.79,0,0,1-5-.59,75.51,75.51,0,0,0-2.53-13.39.84.84,0,0,0-1.21-.5c-3.27,1.75-4.37,7.4-5.39,10.59l0,.12c-4-1.75-8-3.65-12.34-4.64a.83.83,0,0,0-.8,1.38C116.27,68.93,120,72.61,123.44,76.55Zm3.48-6.09,0,0c-.11.3-.22.6-.32.91,0-.13.07-.26.12-.38S126.87,70.65,126.92,70.46Zm6.9,4.31.08.51A38,38,0,0,0,130,78.09a23.56,23.56,0,0,0-1.81,1.66c-.17-.22-.33-.45-.51-.66-.54-.7-1.1-1.39-1.67-2.07.69-2,1.36-4.06,2-6.09a46.24,46.24,0,0,0,5.47,1.84C133.62,73.44,133.72,74.1,133.82,74.77Zm-10.72,10c.82-2,1.57-3.92,2.28-5.92.49.6,1,1.2,1.44,1.81l.21.29A44.18,44.18,0,0,1,123.1,84.76Zm12.51.3c.49,2.16,1.29,4.25,1.6,6.43-3.06-3.23-5.48-7-8.11-10.55l.24-.24A36.06,36.06,0,0,1,134.15,77C134.56,79.67,135,82.39,135.61,85.06Zm1.44-11.6c-.55.28-1.09.58-1.63.89,0-.4-.11-.79-.16-1.19C135.85,73.28,136.44,73.38,137.05,73.46Zm-3.74-2.37a46.9,46.9,0,0,1-4.76-1.64c.95-2.87,1.93-5.72,3-8.54A89,89,0,0,1,133.31,71.09Zm-2.16-11.3c-1.36,3-2.53,6.11-3.66,9.22l-.15-.06C128.14,65.86,129.11,61.76,131.15,59.79ZM124,74.66c-2.62-2.94-5.38-5.75-8.08-8.61a102.41,102.41,0,0,1,9.52,3.78Q124.67,72.25,124,74.66Z"/><path class="cls-1" d="M17.83,123.69c-.86,3.08-1.68,6.17-2.46,9.31-.11.22-.21.44-.31.66a.78.78,0,0,0,0,.65l0,.17a.72.72,0,0,0,1.39.38c0-.13.07-.26.1-.39a29.08,29.08,0,0,0,5.82-5.21c3.07,4.17,5.83,8.52,9.66,12.06a.84.84,0,0,0,1.42-.59c.1-2.79-.89-5.27-1.55-7.94-.78-3.17-1.27-6.43-1.77-9.64a42.26,42.26,0,0,1,4.79-2.44c.75-.33.33-1.47-.4-1.47a24.54,24.54,0,0,1-5-.59,73.59,73.59,0,0,0-2.53-13.39.83.83,0,0,0-1.21-.5c-3.26,1.75-4.37,7.39-5.38,10.58a.5.5,0,0,1,0,.13c-4-1.75-8-3.65-12.33-4.64a.83.83,0,0,0-.8,1.38C10.65,116.07,14.38,119.75,17.83,123.69Zm3.48-6.09,0,0-.33.9.12-.37C21.2,118,21.25,117.79,21.31,117.6Zm6.89,4.31.08.51a40.22,40.22,0,0,0-3.89,2.8c-.63.52-1.22,1.09-1.81,1.67l-.5-.67c-.55-.7-1.11-1.38-1.68-2.07.7-2,1.37-4.05,2-6.08a48.3,48.3,0,0,0,5.48,1.84C28,120.57,28.1,121.24,28.2,121.91Zm-10.72,10c.82-2,1.57-3.93,2.28-5.92.49.6,1,1.2,1.44,1.81.08.09.15.19.22.28A41.81,41.81,0,0,1,17.48,131.9Zm12.51.29c.5,2.16,1.3,4.26,1.61,6.43-3.06-3.22-5.48-7-8.12-10.54l.25-.24a35.5,35.5,0,0,1,4.81-3.75C29,126.81,29.39,129.53,30,132.19Zm1.44-11.59c-.55.28-1.09.58-1.62.89-.06-.4-.11-.79-.17-1.19C30.23,120.42,30.83,120.52,31.43,120.6Zm-3.73-2.37a47.94,47.94,0,0,1-4.77-1.64c1-2.87,1.94-5.73,3-8.54A89,89,0,0,1,27.7,118.23Zm-2.16-11.3c-1.36,3-2.54,6.11-3.66,9.22l-.16-.06C22.53,113,23.5,108.9,25.54,106.93ZM18.36,121.8c-2.61-2.94-5.37-5.75-8.07-8.61A101.14,101.14,0,0,1,19.8,117Q19.05,119.39,18.36,121.8Z"/><path class="cls-1" d="M63.7,15.41c-1.61,4.29-3.06,8.64-4.47,13a.56.56,0,0,0,.56.74,2.45,2.45,0,0,1-.08.29c-.14.55.52,1.19,1,.81,3.15-2.33,6.25-4.68,9.43-6.89a63.7,63.7,0,0,0,4.58,4.57.38.38,0,0,0,.23.2c1.37,1.24,2.8,2.43,4.26,3.59.53.42,1.48.06,1.24-.71-1.23-3.95-2.53-7.92-3.62-11.94A55.64,55.64,0,0,1,86,14.82a.74.74,0,0,0,0-1.41c-1.78-.4-3.57-.73-5.37-1-.08-.34-.58-.45-.71-.11-.85-.14-1.71-.27-2.56-.39a.31.31,0,0,0-.16,0l-2-.29-.27-1.5A7,7,0,0,0,75,9.3c0-.18-.17-.23-.29-.16l-.33-1.61c0-.1.09-.2.13-.29a.45.45,0,0,0-.33-.61,26,26,0,0,0-1.43-4.37c.17-.22.34-.44.52-.65s-.18-.79-.47-.47c-.12.14-.24.29-.37.43-.2-.41-.41-.82-.65-1.22a.72.72,0,0,0-1.24,0,95.06,95.06,0,0,0-4.73,9.74L65.17,10a2.25,2.25,0,0,1,0-.22c0-.3-.41-.44-.47-.13l-.06.25a52.54,52.54,0,0,1-8.36-2.44c-.78-.31-1.29,1-.57,1.34A27.84,27.84,0,0,1,63.7,15.41Zm9.39-7.08c-.51.93-1.08,1.83-1.68,2.71l-1.1-.17a18.2,18.2,0,0,0,2.46-4C72.89,7.36,73,7.84,73.09,8.33Zm6.27,5.34a5.79,5.79,0,0,0-.92,2.88c-.46.24-.92.48-1.37.74a18.76,18.76,0,0,1,.81-2c.3-.59.6-1.17.88-1.76Zm1.44,1.72c-.55.25-1.08.51-1.62.78a6,6,0,0,1,.51-1.29c.17-.35.34-.71.5-1.08l.63.1c0,.07,0,.13,0,.2a3.67,3.67,0,0,0-.17,1A.36.36,0,0,0,80.8,15.39Zm.93-1.33,1.47.27c-.61.25-1.21.51-1.81.78A2.6,2.6,0,0,0,81.73,14.06ZM77.27,25.58c.35,1.17.72,2.32,1.08,3.48-.48-.4-1-.81-1.42-1.22.09-.33.11-.72.16-.94Q77.21,26.26,77.27,25.58Zm-.67-.8a8,8,0,0,1-.23,2.13c0,.09-.06.21-.1.33l-.42-.39a12,12,0,0,0,.85-3.12c.08.24.15.49.22.73A.29.29,0,0,0,76.6,24.78Zm-.47-2a9,9,0,0,1-1,3.46l-.54-.53a16.22,16.22,0,0,1,.8-2.2,14.94,14.94,0,0,0,.68-1.79c.07.26.15.52.23.78A.26.26,0,0,0,76.13,22.77ZM72.91,24a13.22,13.22,0,0,0,2.2-3.67,2.06,2.06,0,0,1,.12-.26l.18-.12a13.2,13.2,0,0,1-1.06,2.69c-.28.55-.59,1.25-1,1.85Zm-2.42-2.62-.15-.17A41.92,41.92,0,0,1,73,16.87c.4-.64.89-1.33,1.32-2,.07.35.15.69.23,1-.89,1.69-2.24,3.16-3.13,4.85C71.12,20.93,70.8,21.14,70.49,21.36Zm-5.37-3c-.48.8-1,1.6-1.5,2.38.41-1.29.84-2.59,1.31-3.87l.32.4c-.1.25-.2.5-.29.77A.26.26,0,0,0,65.12,18.36ZM66,15.81l-.42-.51.09-.26a.29.29,0,0,0,.41.08,7.66,7.66,0,0,0,.79-.72Q66.36,15.09,66,15.81ZM66,14.08c.18-.44.36-.87.55-1.3l.69-.94.36.07C67.09,12.63,66.55,13.35,66,14.08ZM62.8,23.46a26.59,26.59,0,0,0,2.33-4.05c.24-.45.51-.89.77-1.33l.72.91a42.67,42.67,0,0,0-4.38,8,.33.33,0,0,0,0,.35c-.23.18-.46.36-.7.53C62,26.38,62.37,24.92,62.8,23.46ZM67.37,20l.52.66c-.79.89-1.61,1.77-2.34,2.7C66.17,22.21,66.76,21.08,67.37,20Zm7.5-2.86.3,1.2,0,.1-1.86,1.14C73.82,18.73,74.39,17.94,74.87,17.1Zm2-1.31A10.68,10.68,0,0,0,76.35,17l-.12-.46a.24.24,0,0,0,0-.09,1.74,1.74,0,0,1,0-.22,11.12,11.12,0,0,0,.66-1.61c.17-.41.33-.84.46-1.27l.77.11C77.67,14.25,77.24,15,76.86,15.79ZM76,14a.38.38,0,0,0-.46-.42l-.12-.53h0l.94.13Zm-1.93-.31a45.93,45.93,0,0,1-2.49,4,25.34,25.34,0,0,0-1.89,2.77l-.34-.4a8.85,8.85,0,0,0,1.49-2.47c.62-.93,1.23-1.87,1.83-2.81.4-.62.79-1.26,1.14-1.92h.09C74,13.16,74,13.44,74.1,13.73Zm-2.92,1.85a40.2,40.2,0,0,0-2.5,3.63l-.53-.66c.51-.87,1-1.74,1.6-2.56a.28.28,0,0,0-.27-.42c.31-.57.63-1.15,1-1.68s.61-.92.93-1.38l1.59.23A32.89,32.89,0,0,1,71.18,15.58Zm-2-1.27a12.52,12.52,0,0,0-1.87,3.17l-.62-.78h0c1-1.44,1.85-3,2.75-4.48l1,.16C70,13,69.59,13.66,69.17,14.31Zm.37-3.56h-.1l.1-.18c1-1.66,2-3.35,2.85-5.09,0,.14.09.28.13.42A20.43,20.43,0,0,1,69.54,10.75ZM72.22,4.9a37.44,37.44,0,0,0-2.83,4.4c-.27.44-.55.87-.83,1.29l-.43-.07,1.21-1.94c.86-1.41,1.84-2.76,2.72-4.15C72.12,4.58,72.17,4.74,72.22,4.9ZM66.1,24.46c.58-.88,1.19-1.74,1.83-2.6.15-.21.31-.41.47-.61l.81,1C68.17,23,67.13,23.71,66.1,24.46Zm5.51-1.86a.2.2,0,0,0,0-.17l0-.07c.72-.49,1.44-1,2.17-1.43a12.42,12.42,0,0,0-1.43,2.49C72.11,23.15,71.86,22.88,71.61,22.6Zm2-11.23-1.36-.2c.35-.53.7-1.08,1-1.63ZM71.82,3.75c-.48.62-1,1.23-1.45,1.84.44-.69.9-1.36,1.38-2A1.34,1.34,0,0,0,71.82,3.75ZM69.61,5.19c.49-1,1-2,1.55-3,.08.18.17.35.25.53Q70.47,3.95,69.61,5.19ZM64,13.06a8.59,8.59,0,0,0,.66-1.56c0-.05,0-.09,0-.13l.49.1c-.33.79-.65,1.59-1,2.39-.79-.88-1.62-1.73-2.49-2.53,0-.13,0-.25.05-.38a2,2,0,0,1,0-.24L63,11l0,.1a2.68,2.68,0,0,0-.25,1c0,.22.3.39.47.2a2.38,2.38,0,0,0,.47-1.08.13.13,0,0,1,0-.06l.55.12-.1.24A3.89,3.89,0,0,0,63.63,13,.22.22,0,0,0,64,13.06ZM61.2,10.77l-.44-.35.48.13C61.23,10.62,61.21,10.7,61.2,10.77Z"/><path class="cls-1" d="M124.16,20.84C120,22.61,116.79,25.66,113,28c-3.28,2-6.92,3.1-9.5,6a.59.59,0,0,0,.71.92c3.26-1.84,6.89-2.83,10.22-4.5a36.61,36.61,0,0,0,3.81-2.29c-6,6.8-11.86,13.54-18.21,20.15-5.84,6.07-11.32,12.2-15.55,19.41-2.7-4.34-5.52-8.59-7.85-13.16a2.21,2.21,0,0,0-3-.78c-6.1,3.5-9.88,8.91-14.23,14.29C54.23,74.41,48.7,80.49,43,86.42c-1.57-5.14-.84-10.91-2.93-16-.58-1.43-2.44-2.32-3.68-1C29.67,76.77,21.94,83.1,15.11,90.38,12.79,92.85,5,103.71,1.4,103.44c-1.61-.12-1.95,2.45-.38,2.81,4.64,1.08,10.51-6.32,13.16-8.94C21.66,89.88,29.62,82.8,37,75.23c1.15,5.47.61,11.22,3.4,16.34a2.26,2.26,0,0,0,3.51.45c5.86-6.07,11.61-12.33,17-18.84C65,68.13,68.56,62.54,73.93,58.75c2.72,4.9,5.88,9.51,8.74,14.34a2.19,2.19,0,0,0,3.74,0c4.67-9.21,11.57-16.7,18.73-24,6.17-6.32,11.65-12.74,17.27-19.35-1.25,4.49-3.33,8.84-4,13.51l-.23.35a1.7,1.7,0,0,0,.26,2l.33.37c1,1.18,2.83.17,2.91-1.21.47-7.81,5.55-14.47,4.9-22.48A1.67,1.67,0,0,0,124.16,20.84Z"/></g></g></svg>