<svg xmlns="http://www.w3.org/2000/svg" viewBox="0 0 136.21 94.2"><defs><style>.cls-1{fill:#fff;}</style></defs><g id="Layer_2" data-name="Layer 2"><g id="ARTBOARD2"><path class="cls-1" d="M134.55,90.17l-31,0c.62-10.06.12-20.29.1-30.37,0-5,.08-10.11-.28-15.13.73-3,1.54-5.92,2.48-8.84,1.84,3.62,3.72,7.07,6.9,9.82a1.46,1.46,0,0,0,2.24-.29c2.7-3.66,3.25-8.38,5.7-12.08a11.82,11.82,0,0,0,.81,3.35c.49,1.1,2.15.3,1.89-.79-.6-2.46-.72-5-1.29-7.45a1,1,0,0,0-1.47-.6,38.3,38.3,0,0,0-3.79,2.39c-.6.4-1.51.87-1.33,1.66a1,1,0,0,0,.23.34.85.85,0,0,0,.84.22A14.55,14.55,0,0,0,119.14,31c-2.76,3.37-3.48,7.7-5.66,11.44-2.94-3.11-4.71-7-6.72-10.82a1.4,1.4,0,0,0-2.53.33,116.08,116.08,0,0,0-3.78,13c-7.61-9.2-10.83-21.76-16.28-32.15a1.3,1.3,0,0,0-2.35.31c-2.19,7.1-2.6,14.67-4.49,21.94a36.86,36.86,0,0,1-2.63-3.85,1.25,1.25,0,0,0-2.14,0c-1.6,2.47-2,5.19-3,7.86a94.85,94.85,0,0,1-6.46-15.71C62.84,22.4,61.34,22,60.9,23c-2,4.64-4,9.34-5.52,14.15-1,3.11-1.37,7-3,10-2.3-6.43-3.76-13.16-5.93-19.61,0-.22,0-.45-.06-.68a.3.3,0,0,0-.26-.27c-.35-1-.7-2-1.09-2.92a1.27,1.27,0,0,0-2.42,0C40.05,31.53,37.38,40,33.79,47.58c-2-3.21-3.34-6.69-5.09-10A1.21,1.21,0,0,0,27.65,37c0-.29,0-.58-.09-.87a.29.29,0,0,0-.58,0c-.05.39-.08.79-.12,1.18l0,0c-4.58,5.81-8.44,14-15.86,16.58a.72.72,0,0,0,.38,1.38,13.91,13.91,0,0,0,6-2.92c-1.4,12.15-1.13,25.6-.32,37.59-4.65.24-9.27.64-13.83,1.24,2-14.12.53-29.38.49-43.63,0-15.78-.62-31.45-1.21-47.2a.34.34,0,0,0-.68,0C1.19,16.08.62,31.75.57,47.53.53,61.86-1,77.2,1.09,91.39c0,0,0,0,0,.06-.22,0-.44,0-.66.09a.37.37,0,0,0,0,.71c21.94,3.31,45.19,1.41,67.35,1.4l66.75,0A1.72,1.72,0,0,0,134.55,90.17ZM84.77,51.71c0-10.66.33-21.46-.21-32.14,2.71,6.14,5.08,12.6,8.23,18.54-.62,6.69-.4,13.52-.41,20.23,0,10.56-.55,21.27.1,31.81H84.66C85.47,77.43,84.78,64.44,84.77,51.71Zm9.42,6.63c0-6,.17-12.12-.24-18.13a45.4,45.4,0,0,0,6.25,8.55,1.39,1.39,0,0,0,1.69.2c-.11,3.61-.07,7.23-.08,10.82,0,10.08-.52,20.31.11,30.37H94.09C94.74,79.61,94.21,68.89,94.19,58.34ZM83.25,17.7c-.69,11.29-.3,22.73-.31,34,0,12.74-.7,25.71.11,38.43H75.23c.67-10.74.11-21.66.1-32.42,0-7.21.26-14.57-.41-21.77A27.12,27.12,0,0,0,77,38.54,1.26,1.26,0,0,0,79.08,38C81.15,31.39,81.7,24.36,83.25,17.7ZM61.82,27c.86,2.5,1.8,4.95,2.84,7.36-.87,7.68-.56,15.59-.57,23.32,0,10.75-.57,21.66.1,32.39q-3.88,0-7.82-.11c.61-10,.11-20.19.1-30.22,0-5.3.07-10.67-.36-16l.33-1.26A116.7,116.7,0,0,1,61.82,27ZM50.94,50.14c.31.76,1.38,1.31,2,.53a12,12,0,0,0,1.79-2.87c-.15,4-.11,8-.11,12,0,10-.52,20.18.09,30.18L47,89.79c.69-11.31.1-22.82.09-34.14,0-5.79.14-11.64,0-17.47A116.56,116.56,0,0,0,50.94,50.14ZM45.41,32.4C45,40.12,45.23,48,45.22,55.65c0,11.31-.6,22.81.09,34.1-2.59,0-5.17-.1-7.76-.13.92-13.76,1.21-29.34-.47-43.13,2.66-6,4.81-12.44,6.86-18.71C44.47,29.31,45,30.85,45.41,32.4ZM18.26,51.54a40.37,40.37,0,0,0,4.34-4.82c.62-.79,2.51-4.06,3.93-5.42-.32,5.66-.16,11.4-.17,17,0,10.38-.53,20.91.08,31.28q-3.9.06-7.77.23C19.5,77.62,19.76,63.87,18.26,51.54ZM28.1,89.6c.61-10.36.09-20.89.08-31.26,0-5.74.15-11.57-.19-17.33,1.23,1.53,4,8.65,4.87,9.79a1.29,1.29,0,0,0,2.2,0c.36-.7.69-1.43,1-2.15C34.69,61.89,35,76.56,35.85,89.6,33.27,89.58,30.68,89.58,28.1,89.6Zm37.7.52c.67-10.73.11-21.65.1-32.4,0-7.09.25-14.33-.38-21.41,1,2.08,2,4.15,3.13,6.18a1.24,1.24,0,0,0,2.12,0c1.36-2.66,1.78-5.59,3-8.27l.33.49c-.83,7.58-.53,15.39-.54,23,0,10.76-.57,21.68.1,32.42H65.8Z"/></g></g></svg>