<svg xmlns="http://www.w3.org/2000/svg" xmlns:xlink="http://www.w3.org/1999/xlink" width="221.052" height="217.133" viewBox="0 0 221.052 217.133"><defs><clipPath id="a"><rect width="178.108" height="214.817" transform="translate(6)" fill="#fff" stroke="#fff" stroke-width="1"/></clipPath><clipPath id="b"><rect width="148.722" height="179.374" transform="translate(0)" fill="#fff" stroke="#fff" stroke-width="1"/></clipPath></defs><g transform="translate(-584.527 -490.567)"><g transform="translate(578.527 490.567)"><g clip-path="url(#a)"><g transform="translate(33.537 14.502)" fill="none"><path d="M91.546,0c50.56,0,91.546,42.813,91.546,95.625S142.106,191.25,91.546,191.25,0,148.438,0,95.625,40.987,0,91.546,0Z" stroke="none"/><path d="M 91.54640960693359 3 C 85.54546356201172 3 79.54904174804688 3.631332397460938 73.72370147705078 4.876495361328125 C 68.04656982421875 6.0899658203125 62.46188354492188 7.900833129882812 57.12477874755859 10.25880432128906 C 51.88162231445312 12.57528686523438 46.82374572753906 15.44305419921875 42.0916748046875 18.78240966796875 C 37.40127563476562 22.09236145019531 32.989990234375 25.894287109375 28.98036193847656 30.08258056640625 C 24.96852111816406 34.27314758300781 21.32591247558594 38.88481140136719 18.15373229980469 43.78948974609375 C 14.95004272460938 48.74284362792969 12.19827270507812 54.03854370117188 9.974853515625 59.52952575683594 C 7.709732055664062 65.12344360351562 5.969985961914062 70.97786712646484 4.803939819335938 76.93013000488281 C 3.606903076171875 83.04039001464844 2.999984741210938 89.33031463623047 2.999984741210938 95.62520599365234 C 2.999984741210938 101.9200973510742 3.606903076171875 108.2100219726562 4.803939819335938 114.3202819824219 C 5.969985961914062 120.2725448608398 7.709732055664062 126.1269683837891 9.974853515625 131.7208862304688 C 12.19827270507812 137.2118682861328 14.95004272460938 142.507568359375 18.15373229980469 147.4609222412109 C 21.32591247558594 152.3656005859375 24.96852111816406 156.9772644042969 28.98036193847656 161.1678314208984 C 32.989990234375 165.3561248779297 37.40127563476562 169.1580505371094 42.0916748046875 172.4679870605469 C 46.82374572753906 175.8073577880859 51.88162231445312 178.6751251220703 57.12477874755859 180.9916076660156 C 62.46188354492188 183.3495788574219 68.04656982421875 185.1604461669922 73.72370147705078 186.3739166259766 C 79.54904174804688 187.6190795898438 85.54546356201172 188.2504119873047 91.54640960693359 188.2504119873047 C 97.54735565185547 188.2504119873047 103.5437774658203 187.6190795898438 109.3691177368164 186.3739166259766 C 115.0462493896484 185.1604461669922 120.6309356689453 183.3495788574219 125.968017578125 180.9916076660156 C 131.2111968994141 178.6751251220703 136.2690734863281 175.8073577880859 141.0011444091797 172.4679870605469 C 145.6915130615234 169.1580505371094 150.1028137207031 165.3561248779297 154.1124572753906 161.1678314208984 C 158.1242828369141 156.9772644042969 161.7668762207031 152.3656005859375 164.9390716552734 147.4609222412109 C 168.1427459716797 142.507568359375 170.8945465087891 137.2118682861328 173.1179656982422 131.7208862304688 C 175.3830718994141 126.1269683837891 177.122802734375 120.2725448608398 178.2888641357422 114.3202819824219 C 179.4858856201172 108.2100219726562 180.0928039550781 101.9200973510742 180.0928039550781 95.62520599365234 C 180.0928039550781 89.33031463623047 179.4858856201172 83.04039001464844 178.2888641357422 76.93013000488281 C 177.122802734375 70.97786712646484 175.3830718994141 65.12344360351562 173.1179656982422 59.52952575683594 C 170.8945465087891 54.03854370117188 168.1427459716797 48.74284362792969 164.9390716552734 43.78948974609375 C 161.7668762207031 38.88481140136719 158.1242828369141 34.27314758300781 154.1124572753906 30.08258056640625 C 150.1028137207031 25.894287109375 145.6915130615234 22.09236145019531 141.0011444091797 18.78240966796875 C 136.2690734863281 15.44305419921875 131.2111968994141 12.57528686523438 125.968017578125 10.25880432128906 C 120.6309356689453 7.900833129882812 115.0462493896484 6.0899658203125 109.3691177368164 4.876495361328125 C 103.5437774658203 3.631332397460938 97.54735565185547 3 91.54640960693359 3 M 91.54640960693359 0 C 142.1060943603516 0 183.0928039550781 42.8128662109375 183.0928039550781 95.62520599365234 C 183.0928039550781 148.4375457763672 142.1060943603516 191.2504119873047 91.54640960693359 191.2504119873047 C 40.98672485351562 191.2504119873047 -1.52587890625e-05 148.4375457763672 -1.52587890625e-05 95.62520599365234 C -1.52587890625e-05 42.8128662109375 40.98672485351562 0 91.54640960693359 0 Z" stroke="none" fill="#fff"/></g></g><g transform="translate(21 17)" clip-path="url(#b)"><g transform="translate(28.004 12.11)" fill="none"><path d="M76.442,0c42.218,0,76.442,35.749,76.442,79.848S118.66,159.7,76.442,159.7,0,123.947,0,79.848,34.224,0,76.442,0Z" stroke="none"/><path d="M 76.44218444824219 5 C 66.82280731201172 5 57.49170684814453 6.967666625976562 48.70806121826172 10.84837341308594 C 44.48075866699219 12.71601867675781 40.40213775634766 15.02864074707031 36.58551025390625 17.72200012207031 C 32.7996826171875 20.39360046386719 29.23858642578125 23.462890625 26.00110626220703 26.8446044921875 C 22.75997924804688 30.23011779785156 19.81687927246094 33.956298828125 17.25350952148438 37.91962432861328 C 14.66378784179688 41.92372131347656 12.43923950195312 46.20487213134766 10.64166259765625 50.64417266845703 C 6.898117065429688 59.88924407958984 4.999984741210938 69.71484375 4.999984741210938 79.8480224609375 C 4.999984741210938 89.981201171875 6.898117065429688 99.80679321289062 10.64166259765625 109.051872253418 C 12.43923950195312 113.4911499023438 14.66378784179688 117.7722930908203 17.25350952148438 121.7763977050781 C 19.81687927246094 125.7397232055664 22.760009765625 129.4658966064453 26.00110626220703 132.8514251708984 C 29.23858642578125 136.233154296875 32.7996826171875 139.3024291992188 36.58551025390625 141.9740447998047 C 40.40213775634766 144.6673736572266 44.48075866699219 146.9799957275391 48.70806121826172 148.8476715087891 C 57.49170684814453 152.7283782958984 66.82280731201172 154.696044921875 76.44218444824219 154.696044921875 C 86.06156158447266 154.696044921875 95.39265441894531 152.7283782958984 104.1763076782227 148.8476715087891 C 108.4036102294922 146.9799957275391 112.4822082519531 144.6674041748047 116.2988586425781 141.9740447998047 C 120.0846557617188 139.3024291992188 123.6457595825195 136.233154296875 126.8832321166992 132.8514251708984 C 130.1243591308594 129.4658966064453 133.0674591064453 125.7397232055664 135.6308288574219 121.7763977050781 C 138.2205657958984 117.7722930908203 140.4451141357422 113.4911499023438 142.2426910400391 109.051872253418 C 145.9862365722656 99.80679321289062 147.8843536376953 89.981201171875 147.8843536376953 79.8480224609375 C 147.8843536376953 69.71484375 145.9862365722656 59.88924407958984 142.2426910400391 50.64417266845703 C 140.4451141357422 46.20487213134766 138.2205657958984 41.92372131347656 135.6308288574219 37.91962432861328 C 133.0674591064453 33.956298828125 130.1243591308594 30.23011779785156 126.8832321166992 26.8446044921875 C 123.6457595825195 23.462890625 120.0846557617188 20.39360046386719 116.2988586425781 17.72200012207031 C 112.4822082519531 15.02864074707031 108.4036102294922 12.71601867675781 104.1763076782227 10.84837341308594 C 95.39265441894531 6.967666625976562 86.06156158447266 5 76.44218444824219 5 M 76.44218444824219 0 C 118.6600341796875 0 152.8843536376953 35.74917602539062 152.8843536376953 79.8480224609375 C 152.8843536376953 123.9468460083008 118.6600341796875 159.696044921875 76.44218444824219 159.696044921875 C 34.22433471679688 159.696044921875 -1.52587890625e-05 123.9468460083008 -1.52587890625e-05 79.8480224609375 C -1.52587890625e-05 35.74917602539062 34.22433471679688 0 76.44218444824219 0 Z" stroke="none" fill="#fff"/></g></g></g><path d="M0,0H90.328V100.662" transform="translate(713.751 607.039)" fill="none" stroke="#fff" stroke-width="3"/><path d="M0,0H58.391V65.071" transform="translate(734.19 617.039)" fill="none" stroke="#fff" stroke-width="3"/></g></svg>